<svg width="68" height="68" viewBox="0 0 68 68" fill="none" xmlns="http://www.w3.org/2000/svg">
<path d="M67.9952 34.0012C67.9952 51.1733 55.2667 65.3699 38.7312 67.6736C37.1851 67.888 35.6033 68 33.9976 68C32.1442 68 30.3241 67.8523 28.5517 67.5664C12.3641 64.9601 0 50.9231 0 34.0012C0 15.2233 15.2228 0 34 0C52.7772 0 68 15.2233 68 34.0012H67.9952Z" fill="#161817"/>
<path d="M29.5785 13.5985L30.0386 15.4622C28.2251 15.9104 26.4895 16.629 24.8899 17.5939L23.9056 15.9456C25.6663 14.8794 27.5792 14.0879 29.5785 13.5985ZM39.4215 13.5985L38.9614 15.4622C40.7749 15.9104 42.5105 16.629 44.1101 17.5939L45.106 15.9456C43.3407 14.8804 41.4241 14.089 39.4215 13.5985ZM16.9456 22.8998C15.8804 24.663 15.089 26.5777 14.5984 28.5785L16.4622 29.0386C16.9104 27.2252 17.629 25.4895 18.5939 23.89L16.9456 22.8998ZM15.9206 33.5C15.9204 32.5681 15.9905 31.6374 16.1302 30.716L14.2315 30.4248C13.9228 32.4614 13.9228 34.5328 14.2315 36.5694L16.1302 36.284C15.9907 35.3626 15.9206 34.4319 15.9206 33.5ZM45.0944 51.0485L44.1101 49.4061C42.5131 50.3719 40.7792 51.0905 38.9672 51.5378L39.4273 53.4015C41.4242 52.9074 43.3348 52.1141 45.0944 51.0485ZM53.0794 33.5C53.0794 34.4319 53.0093 35.3626 52.8698 36.284L54.7685 36.5694C55.0772 34.5328 55.0772 32.4614 54.7685 30.4248L52.8698 30.716C53.0095 31.6374 53.0796 32.5681 53.0794 33.5ZM54.4016 38.4157L52.5378 37.9556C52.0907 39.7712 51.372 41.5089 50.4061 43.11L52.0544 44.1002C53.1206 42.3354 53.9121 40.4186 54.4016 38.4157ZM37.284 51.8698C35.4385 52.1493 33.5615 52.1493 31.716 51.8698L31.4306 53.7685C33.4652 54.0772 35.5348 54.0772 37.5694 53.7685L37.284 51.8698ZM49.4567 44.5195C48.3497 46.0207 47.0224 47.3461 45.5195 48.4509L46.6611 50.0002C48.3164 48.7816 49.7808 47.3231 51.006 45.6727L49.4567 44.5195ZM45.5195 18.5433C47.0225 19.6502 48.3498 20.9775 49.4567 22.4805L51.006 21.3273C49.7851 19.6754 48.3246 18.2149 46.6727 16.994L45.5195 18.5433ZM19.5433 22.4805C20.6502 20.9775 21.9775 19.6502 23.4805 18.5433L22.3273 16.994C20.6754 18.2149 19.2149 19.6754 17.994 21.3273L19.5433 22.4805ZM52.0544 22.8998L50.4061 23.89C51.3719 25.487 52.0906 27.2208 52.5378 29.0328L54.4016 28.5727C53.911 26.5738 53.1195 24.661 52.0544 22.8998ZM31.716 15.1302C33.5615 14.8506 35.4385 14.8506 37.284 15.1302L37.5694 13.2315C35.5348 12.9228 33.4652 12.9228 31.4306 13.2315L31.716 15.1302ZM20.5276 50.5127L16.5612 51.4329L17.4873 47.4666L15.6177 47.0298L14.6916 50.9961C14.6337 51.242 14.6248 51.4969 14.6655 51.7463C14.7061 51.9956 14.7956 52.2345 14.9286 52.4493C15.0617 52.664 15.2358 52.8504 15.441 52.9979C15.6462 53.1453 15.8784 53.2508 16.1244 53.3083C16.4121 53.3724 16.7104 53.3724 16.998 53.3083L20.9644 52.3939L20.5276 50.5127ZM16.0137 45.3174L17.8892 45.7484L18.5298 42.9994C17.5942 41.43 16.8974 39.7301 16.4622 37.9556L14.5984 38.4157C15.0177 40.1143 15.6518 41.7525 16.4855 43.2906L16.0137 45.3174ZM24.9831 49.476L22.2341 50.1166L22.6709 51.9921L24.6919 51.5203C26.2289 52.3565 27.8674 52.9908 29.5668 53.4074L30.027 51.5436C28.258 51.1027 26.5641 50.402 25.0006 49.4643L24.9831 49.476ZM34.5 16.8426C25.2976 16.8484 17.8484 24.3093 17.8484 33.5058C17.8535 36.6382 18.7395 39.706 20.4052 42.3587L18.8036 49.1964L25.6354 47.5947C33.4225 52.4929 43.7082 50.1574 48.6064 42.3762C53.5046 34.595 51.1749 24.3093 43.3937 19.4053C40.7298 17.7301 37.6468 16.8417 34.5 16.8426Z" fill="white"/>
</svg>
