<svg width="68" height="68" viewBox="0 0 68 68" fill="none" xmlns="http://www.w3.org/2000/svg">
<path d="M67.9952 34.0012C67.9952 51.1733 55.2667 65.3699 38.7312 67.6736C37.1851 67.888 35.6033 68 33.9976 68C32.1442 68 30.3241 67.8523 28.5517 67.5664C12.3641 64.9601 0 50.9231 0 34.0012C0 15.2233 15.2228 0 34 0C52.7772 0 68 15.2233 68 34.0012H67.9952Z" fill="#161817"/>
<path d="M21.851 37.0695L13.7208 34.3042C13.7208 34.3042 12.7492 33.8926 13.0621 32.9595C13.1265 32.767 13.2564 32.6033 13.6451 32.3219C15.4465 31.0111 46.9881 19.1764 46.9881 19.1764C46.9881 19.1764 47.8787 18.8631 48.404 19.0715C48.5339 19.1135 48.6508 19.1908 48.7428 19.2954C48.8347 19.4 48.8984 19.5283 48.9273 19.6671C48.984 19.9121 49.0078 20.1643 48.9978 20.4162C48.9953 20.6341 48.97 20.8361 48.9509 21.1529C48.7588 24.3885 43.0099 48.5373 43.0099 48.5373C43.0099 48.5373 42.666 49.9504 41.4336 49.9988C41.1308 50.009 40.8291 49.9554 40.5465 49.8413C40.2639 49.7272 40.0062 49.5548 39.7888 49.3345C37.3705 47.163 29.0121 41.2992 27.1651 40.0095C27.1235 39.9799 27.0884 39.9413 27.0622 39.8963C27.0361 39.8513 27.0195 39.801 27.0136 39.7487C26.9877 39.6128 27.1293 39.4444 27.1293 39.4444C27.1293 39.4444 41.6835 25.9396 42.0708 24.5218C42.1007 24.412 41.9875 24.3578 41.8354 24.4059C40.8687 24.7772 24.1114 35.8242 22.2619 37.0434C22.1288 37.0854 21.9881 37.0944 21.851 37.0695Z" fill="white"/>
</svg>
