<svg width="68" height="68" viewBox="0 0 68 68" fill="none" xmlns="http://www.w3.org/2000/svg">
<path d="M67.9952 34.0012C67.9952 51.1733 55.2667 65.3699 38.7312 67.6736C37.1851 67.888 35.6033 68 33.9976 68C32.1442 68 30.3241 67.8523 28.5517 67.5664C12.3641 64.9601 0 50.9231 0 34.0012C0 15.2233 15.2228 0 34 0C52.7772 0 68 15.2233 68 34.0012H67.9952Z" fill="#161817"/>
<path d="M42.9033 27.1538C38.6597 27.3788 34.9697 28.6842 31.9738 31.6335C28.9469 34.6132 27.5651 38.2644 27.9428 42.7907C26.2842 42.5822 24.7734 42.3528 23.2541 42.223C22.7294 42.1782 22.1067 42.2418 21.6622 42.4963C20.1869 43.3411 18.7725 44.2949 17.0962 45.3583C17.4038 43.9465 17.6029 42.7103 17.9553 41.5212C18.2145 40.6472 18.0945 40.1608 17.3011 39.5917C12.207 35.942 10.0597 30.4801 11.6667 24.8569C13.1534 19.6548 16.8044 16.4999 21.7653 14.8553C28.5364 12.6109 36.146 14.9003 40.2634 20.3557C41.7504 22.3262 42.6623 24.538 42.9033 27.1538ZM23.3729 25.4016C23.412 24.3731 22.5338 23.4465 21.4906 23.4156C20.4226 23.3837 19.5442 24.212 19.513 25.28C19.4815 26.3624 20.2973 27.2297 21.373 27.2575C22.4395 27.2849 23.3335 26.4556 23.3729 25.4016ZM33.5627 23.4149C32.5157 23.4344 31.631 24.3393 31.6495 25.3719C31.6686 26.4422 32.5365 27.2795 33.6131 27.2664C34.6926 27.2532 35.5112 26.407 35.501 25.3141C35.4921 24.2413 34.6281 23.3951 33.5627 23.4149Z" fill="white"/>
<path d="M52.4376 54.0001C51.0939 53.3929 49.8613 52.4819 48.5489 52.3429C47.2417 52.2043 45.8675 52.9696 44.4998 53.1115C40.3337 53.5441 36.6013 52.3658 33.5238 49.4777C27.6707 43.9839 28.507 35.5603 35.2788 31.0582C41.2974 27.0569 50.124 28.3908 54.3674 33.9427C58.0704 38.7874 57.6353 45.2184 53.1146 49.2883C51.8065 50.4662 51.3357 51.4355 52.1751 52.9883C52.33 53.275 52.3477 53.638 52.4376 54.0001ZM37.142 38.972C37.9975 38.9729 38.7018 38.2935 38.7343 37.4361C38.7684 36.5283 38.049 35.7669 37.1532 35.7632C36.2664 35.7591 35.5235 36.5312 35.5543 37.4254C35.5834 38.2798 36.2927 38.9709 37.142 38.972ZM47.0023 35.7668C46.1723 35.7609 45.467 36.4504 45.4332 37.3014C45.3973 38.2115 46.0943 38.9588 46.9818 38.9611C47.8402 38.964 48.5185 38.3052 48.5496 37.4384C48.5829 36.5262 47.8856 35.773 47.0023 35.7668Z" fill="white"/>
</svg>
