<svg width="68" height="68" viewBox="0 0 68 68" fill="none" xmlns="http://www.w3.org/2000/svg">
<path d="M67.9952 34.0012C67.9952 51.1733 55.2667 65.3699 38.7312 67.6736C37.1851 67.888 35.6033 68 33.9976 68C32.1442 68 30.3241 67.8523 28.5517 67.5664C12.3641 64.9601 0 50.9231 0 34.0012C0 15.2233 15.2228 0 34 0C52.7772 0 68 15.2233 68 34.0012H67.9952Z" fill="#161817"/>
<path d="M14 54L16.8963 43.4724C15.107 40.3841 14.1671 36.8807 14.1715 33.3155C14.1762 22.1134 23.3332 13 34.5859 13C40.0464 13.0028 45.1718 15.1183 49.0264 18.9585C52.8811 22.7987 55.0019 27.9031 55 33.3318C54.995 44.5331 45.8366 53.6481 34.5856 53.6481H34.5767C31.1604 53.6467 27.8035 52.7935 24.8218 51.1749L14 54Z" fill="white"/>
<path d="M34.8927 16.0944C25.505 16.0944 17.8705 23.7257 17.8672 33.1057C17.8626 36.3088 18.7646 39.4477 20.469 42.1596L20.8739 42.8033L19.1543 49.0807L25.5957 47.3919L26.2177 47.7603C28.8301 49.3106 31.8253 50.1304 34.8799 50.1321H34.8863C44.2668 50.1321 51.9012 42.5 51.9048 33.1194C51.9119 30.8835 51.4754 28.6685 50.6206 26.6025C49.7657 24.5366 48.5096 22.6607 46.9248 21.0834C45.3488 19.4976 43.4738 18.2401 41.4085 17.3837C39.3432 16.5273 37.1285 16.0891 34.8927 16.0944Z" fill="#161817"/>
<path fill-rule="evenodd" clip-rule="evenodd" d="M29.944 24.7285C29.573 23.8743 29.1827 23.857 28.8304 23.8422L27.8818 23.8302C27.5518 23.8302 27.0156 23.9586 26.5623 24.4721C26.109 24.9856 24.8301 26.2266 24.8301 28.7508C24.8301 31.2751 26.6034 33.7142 26.8505 34.0569C27.0977 34.3996 30.274 39.7447 35.3042 41.8012C39.4843 43.5102 40.3349 43.1703 41.2426 43.0849C42.1503 42.9995 44.1705 41.8439 44.5826 40.6458C44.9947 39.4477 44.995 38.4213 44.8714 38.2067C44.7478 37.9921 44.4178 37.8645 43.9225 37.6078C43.4272 37.351 40.9947 36.11 40.5411 35.9387C40.0875 35.7673 39.7578 35.6822 39.4275 36.1957C39.0972 36.7092 38.15 37.8643 37.8611 38.2067C37.5723 38.5491 37.284 38.5921 36.7887 38.3356C36.2934 38.0792 34.6999 37.5372 32.8091 35.7894C31.3381 34.4294 30.3451 32.75 30.056 32.2367C29.7669 31.7235 30.0253 31.4456 30.2735 31.1899C30.4955 30.96 30.7682 30.5908 31.0161 30.2913C31.264 29.9919 31.3456 29.7778 31.5103 29.436C31.6751 29.0941 31.593 28.7938 31.4692 28.5373C31.3453 28.2809 30.3838 25.7433 29.944 24.7285Z" fill="white"/>
</svg>
